<svg xmlns="http://www.w3.org/2000/svg" xmlns:xlink="http://www.w3.org/1999/xlink" width="500" zoomAndPan="magnify" viewBox="0 0 375 374.999991" height="500" preserveAspectRatio="xMidYMid meet" version="1.0"><defs><g/><clipPath id="2df160052b"><path d="M 169.921875 54.902344 L 227.683594 54.902344 L 227.683594 112.664062 L 169.921875 112.664062 Z M 169.921875 54.902344 " clip-rule="nonzero"/></clipPath><clipPath id="43bbc481f7"><path d="M 198.804688 54.902344 C 182.851562 54.902344 169.921875 67.832031 169.921875 83.785156 C 169.921875 99.734375 182.851562 112.664062 198.804688 112.664062 C 214.753906 112.664062 227.683594 99.734375 227.683594 83.785156 C 227.683594 67.832031 214.753906 54.902344 198.804688 54.902344 " clip-rule="nonzero"/></clipPath><clipPath id="f304dc6f64"><path d="M 123 28 L 180 28 L 180 278 L 123 278 Z M 123 28 " clip-rule="nonzero"/></clipPath><clipPath id="6b1ee3a2c3"><path d="M 18.84375 154.894531 L 123.0625 28.570312 L 271.917969 151.375 L 167.695312 277.699219 Z M 18.84375 154.894531 " clip-rule="nonzero"/></clipPath><clipPath id="766866a36d"><path d="M 18.84375 154.894531 L 123.0625 28.570312 L 271.917969 151.375 L 167.695312 277.699219 Z M 18.84375 154.894531 " clip-rule="nonzero"/></clipPath><clipPath id="526a92e973"><path d="M 201 39 L 284 39 L 284 280 L 201 280 Z M 201 39 " clip-rule="nonzero"/></clipPath><clipPath id="03889d9182"><path d="M 132.039062 101.242188 L 283.816406 39.726562 L 356.300781 218.566406 L 204.527344 280.082031 Z M 132.039062 101.242188 " clip-rule="nonzero"/></clipPath><clipPath id="32bb674f95"><path d="M 356.15625 218.46875 L 204.378906 279.984375 L 131.894531 101.140625 L 283.667969 39.625 Z M 356.15625 218.46875 " clip-rule="nonzero"/></clipPath></defs><rect x="-37.5" width="450" fill="#ffffff" y="-37.499999" height="449.999989" fill-opacity="1"/><rect x="-37.5" width="450" fill="#f3fdfc" y="-37.499999" height="449.999989" fill-opacity="1"/><g fill="#004aad" fill-opacity="1"><g transform="translate(95.909566, 339.948376)"><g><path d="M 10.765625 -23.578125 C 13.796875 -23.578125 16.523438 -22.773438 18.953125 -21.171875 L 17.328125 -17.6875 C 14.941406 -19.132812 12.65625 -19.859375 10.46875 -19.859375 C 9.28125 -19.859375 8.347656 -19.644531 7.671875 -19.21875 C 6.992188 -18.800781 6.65625 -18.203125 6.65625 -17.421875 C 6.65625 -16.640625 6.96875 -15.972656 7.59375 -15.421875 C 8.21875 -14.878906 8.992188 -14.476562 9.921875 -14.21875 C 10.859375 -13.96875 11.875 -13.644531 12.96875 -13.25 C 14.0625 -12.863281 15.078125 -12.453125 16.015625 -12.015625 C 16.953125 -11.585938 17.726562 -10.910156 18.34375 -9.984375 C 18.957031 -9.054688 19.265625 -7.9375 19.265625 -6.625 C 19.265625 -4.570312 18.441406 -2.929688 16.796875 -1.703125 C 15.160156 -0.472656 13.039062 0.140625 10.4375 0.140625 C 8.644531 0.140625 6.910156 -0.191406 5.234375 -0.859375 C 3.566406 -1.535156 2.113281 -2.441406 0.875 -3.578125 L 2.578125 -6.984375 C 3.753906 -5.890625 5.050781 -5.046875 6.46875 -4.453125 C 7.882812 -3.867188 9.226562 -3.578125 10.5 -3.578125 C 11.882812 -3.578125 12.957031 -3.828125 13.71875 -4.328125 C 14.488281 -4.828125 14.875 -5.523438 14.875 -6.421875 C 14.875 -7.222656 14.5625 -7.894531 13.9375 -8.4375 C 13.3125 -8.988281 12.53125 -9.390625 11.59375 -9.640625 C 10.664062 -9.898438 9.65625 -10.210938 8.5625 -10.578125 C 7.46875 -10.953125 6.453125 -11.34375 5.515625 -11.75 C 4.578125 -12.164062 3.796875 -12.828125 3.171875 -13.734375 C 2.546875 -14.648438 2.234375 -15.753906 2.234375 -17.046875 C 2.234375 -19.035156 3.015625 -20.617188 4.578125 -21.796875 C 6.140625 -22.984375 8.203125 -23.578125 10.765625 -23.578125 Z M 10.765625 -23.578125 "/></g></g></g><g fill="#004aad" fill-opacity="1"><g transform="translate(116.705242, 339.948376)"><g><path d="M 10.125 -17.921875 C 13.34375 -17.921875 15.796875 -16.953125 17.484375 -15.015625 L 15.375 -12.53125 C 14.039062 -13.894531 12.347656 -14.566406 10.296875 -14.546875 C 8.753906 -14.546875 7.488281 -14.015625 6.5 -12.953125 C 5.507812 -11.898438 5.015625 -10.535156 5.015625 -8.859375 C 5.015625 -7.191406 5.507812 -5.828125 6.5 -4.765625 C 7.488281 -3.703125 8.753906 -3.171875 10.296875 -3.171875 C 12.566406 -3.171875 14.316406 -3.882812 15.546875 -5.3125 L 17.6875 -3.171875 C 16.019531 -0.960938 13.5 0.140625 10.125 0.140625 C 7.476562 0.140625 5.320312 -0.6875 3.65625 -2.34375 C 2 -4.007812 1.171875 -6.179688 1.171875 -8.859375 C 1.171875 -11.554688 2 -13.738281 3.65625 -15.40625 C 5.320312 -17.082031 7.476562 -17.921875 10.125 -17.921875 Z M 10.125 -17.921875 "/></g></g></g><g fill="#004aad" fill-opacity="1"><g transform="translate(135.561763, 339.948376)"><g><path d="M 13.4375 -17.921875 C 15.507812 -17.921875 17.128906 -17.3125 18.296875 -16.09375 C 19.472656 -14.882812 20.0625 -13.207031 20.0625 -11.0625 L 20.0625 0 L 16.21875 0 L 16.21875 -10 C 16.21875 -11.332031 15.835938 -12.382812 15.078125 -13.15625 C 14.316406 -13.925781 13.269531 -14.3125 11.9375 -14.3125 C 10.375 -14.289062 9.132812 -13.757812 8.21875 -12.71875 C 7.3125 -11.6875 6.859375 -10.367188 6.859375 -8.765625 L 6.859375 0 L 3.015625 0 L 3.015625 -24.8125 L 6.859375 -24.8125 L 6.859375 -14.3125 C 8.078125 -16.71875 10.269531 -17.921875 13.4375 -17.921875 Z M 13.4375 -17.921875 "/></g></g></g><g fill="#004aad" fill-opacity="1"><g transform="translate(157.928816, 339.948376)"><g><path d="M 23.546875 0 L 19.5625 0 L 15.046875 -13.171875 L 10.53125 0 L 6.59375 0 L 0.03125 -17.78125 L 3.984375 -17.78125 L 8.59375 -3.8125 L 13.078125 -17.78125 L 17.046875 -17.78125 L 21.5625 -3.8125 L 26.109375 -17.78125 L 30.03125 -17.78125 Z M 23.546875 0 "/></g></g></g><g fill="#004aad" fill-opacity="1"><g transform="translate(187.784985, 339.948376)"><g><path d="M 3.140625 -24.5625 C 3.566406 -25 4.101562 -25.21875 4.75 -25.21875 C 5.394531 -25.21875 5.925781 -25 6.34375 -24.5625 C 6.769531 -24.125 6.984375 -23.5625 6.984375 -22.875 C 6.984375 -22.207031 6.769531 -21.65625 6.34375 -21.21875 C 5.925781 -20.78125 5.394531 -20.5625 4.75 -20.5625 C 4.101562 -20.5625 3.566406 -20.78125 3.140625 -21.21875 C 2.710938 -21.65625 2.5 -22.207031 2.5 -22.875 C 2.5 -23.5625 2.710938 -24.125 3.140625 -24.5625 Z M 6.65625 0 L 2.84375 0 L 2.84375 -17.78125 L 6.65625 -17.78125 Z M 6.65625 0 "/></g></g></g><g fill="#004aad" fill-opacity="1"><g transform="translate(197.280113, 339.948376)"><g><path d="M 10.171875 -17.921875 C 13.222656 -17.921875 15.429688 -17 16.796875 -15.15625 C 18.171875 -13.320312 18.734375 -10.742188 18.484375 -7.421875 L 5.046875 -7.421875 C 5.359375 -6.035156 6.003906 -4.945312 6.984375 -4.15625 C 7.960938 -3.363281 9.15625 -2.96875 10.5625 -2.96875 C 12.570312 -2.96875 14.242188 -3.660156 15.578125 -5.046875 L 17.625 -2.875 C 15.789062 -0.863281 13.335938 0.140625 10.265625 0.140625 C 7.523438 0.140625 5.320312 -0.6875 3.65625 -2.34375 C 2 -4.007812 1.171875 -6.179688 1.171875 -8.859375 C 1.171875 -11.535156 2.003906 -13.707031 3.671875 -15.375 C 5.347656 -17.050781 7.515625 -17.898438 10.171875 -17.921875 Z M 4.984375 -10.234375 L 15.140625 -10.234375 C 15.078125 -11.660156 14.597656 -12.785156 13.703125 -13.609375 C 12.816406 -14.429688 11.648438 -14.84375 10.203125 -14.84375 C 8.796875 -14.84375 7.628906 -14.429688 6.703125 -13.609375 C 5.773438 -12.785156 5.203125 -11.660156 4.984375 -10.234375 Z M 4.984375 -10.234375 "/></g></g></g><g fill="#004aad" fill-opacity="1"><g transform="translate(216.939047, 339.948376)"><g><path d="M 11.9375 -4.078125 L 12.90625 -1.140625 C 11.4375 -0.265625 9.976562 0.171875 8.53125 0.171875 C 7.082031 0.171875 5.890625 -0.257812 4.953125 -1.125 C 4.015625 -2 3.546875 -3.296875 3.546875 -5.015625 L 3.546875 -14.25 L 1.03125 -14.25 L 1.03125 -17.125 L 3.546875 -17.125 L 3.546875 -22 L 7.359375 -22 L 7.359375 -17.125 L 12.609375 -17.125 L 12.609375 -14.25 L 7.359375 -14.25 L 7.359375 -5.71875 C 7.359375 -4.820312 7.515625 -4.195312 7.828125 -3.84375 C 8.140625 -3.488281 8.617188 -3.3125 9.265625 -3.3125 C 9.972656 -3.3125 10.863281 -3.566406 11.9375 -4.078125 Z M 11.9375 -4.078125 "/></g></g></g><g fill="#004aad" fill-opacity="1"><g transform="translate(230.546506, 339.948376)"><g><path d="M 10.171875 -17.921875 C 13.222656 -17.921875 15.429688 -17 16.796875 -15.15625 C 18.171875 -13.320312 18.734375 -10.742188 18.484375 -7.421875 L 5.046875 -7.421875 C 5.359375 -6.035156 6.003906 -4.945312 6.984375 -4.15625 C 7.960938 -3.363281 9.15625 -2.96875 10.5625 -2.96875 C 12.570312 -2.96875 14.242188 -3.660156 15.578125 -5.046875 L 17.625 -2.875 C 15.789062 -0.863281 13.335938 0.140625 10.265625 0.140625 C 7.523438 0.140625 5.320312 -0.6875 3.65625 -2.34375 C 2 -4.007812 1.171875 -6.179688 1.171875 -8.859375 C 1.171875 -11.535156 2.003906 -13.707031 3.671875 -15.375 C 5.347656 -17.050781 7.515625 -17.898438 10.171875 -17.921875 Z M 4.984375 -10.234375 L 15.140625 -10.234375 C 15.078125 -11.660156 14.597656 -12.785156 13.703125 -13.609375 C 12.816406 -14.429688 11.648438 -14.84375 10.203125 -14.84375 C 8.796875 -14.84375 7.628906 -14.429688 6.703125 -13.609375 C 5.773438 -12.785156 5.203125 -11.660156 4.984375 -10.234375 Z M 4.984375 -10.234375 "/></g></g></g><g fill="#004aad" fill-opacity="1"><g transform="translate(250.20544, 339.948376)"><g><path d="M 6.6875 -17.78125 L 6.6875 -14.25 C 7.914062 -16.695312 9.96875 -17.921875 12.84375 -17.921875 L 12.84375 -14.25 C 11.082031 -14.332031 9.65625 -13.914062 8.5625 -13 C 7.46875 -12.09375 6.84375 -10.859375 6.6875 -9.296875 L 6.6875 0 L 2.84375 0 L 2.84375 -17.78125 Z M 6.6875 -17.78125 "/></g></g></g><g fill="#004aad" fill-opacity="1"><g transform="translate(263.378264, 339.948376)"><g><path d="M 8.15625 -17.953125 C 10.613281 -17.953125 12.6875 -17.351562 14.375 -16.15625 L 12.96875 -13.3125 C 11.28125 -14.351562 9.578125 -14.875 7.859375 -14.875 C 6.117188 -14.875 5.25 -14.285156 5.25 -13.109375 C 5.25 -12.523438 5.570312 -12.039062 6.21875 -11.65625 C 6.863281 -11.28125 7.648438 -10.960938 8.578125 -10.703125 C 9.503906 -10.453125 10.425781 -10.15625 11.34375 -9.8125 C 12.269531 -9.46875 13.054688 -8.90625 13.703125 -8.125 C 14.347656 -7.34375 14.671875 -6.351562 14.671875 -5.15625 C 14.671875 -3.4375 14.019531 -2.125 12.71875 -1.21875 C 11.414062 -0.3125 9.796875 0.140625 7.859375 0.140625 C 6.515625 0.140625 5.203125 -0.078125 3.921875 -0.515625 C 2.640625 -0.953125 1.566406 -1.5625 0.703125 -2.34375 L 2.078125 -5.078125 C 2.828125 -4.410156 3.753906 -3.875 4.859375 -3.46875 C 5.960938 -3.070312 7.019531 -2.875 8.03125 -2.875 C 8.894531 -2.875 9.59375 -3.03125 10.125 -3.34375 C 10.664062 -3.65625 10.9375 -4.132812 10.9375 -4.78125 C 10.9375 -5.445312 10.613281 -5.976562 9.96875 -6.375 C 9.320312 -6.78125 8.539062 -7.101562 7.625 -7.34375 C 6.707031 -7.59375 5.789062 -7.882812 4.875 -8.21875 C 3.96875 -8.5625 3.195312 -9.113281 2.5625 -9.875 C 1.925781 -10.644531 1.609375 -11.625 1.609375 -12.8125 C 1.609375 -14.5 2.238281 -15.773438 3.5 -16.640625 C 4.757812 -17.515625 6.3125 -17.953125 8.15625 -17.953125 Z M 8.15625 -17.953125 "/></g></g></g><g fill="#00c2cb" fill-opacity="1"><g transform="translate(96.678974, 306.149201)"><g><path d="M 1.15625 0 L 1.078125 -1.375 L 2.703125 -1.8125 C 2.753906 -1.894531 2.789062 -2.117188 2.8125 -2.484375 C 2.832031 -2.847656 2.847656 -3.328125 2.859375 -3.921875 C 2.878906 -4.523438 2.890625 -5.191406 2.890625 -5.921875 L 2.921875 -10.375 C 2.921875 -11.070312 2.910156 -11.710938 2.890625 -12.296875 C 2.878906 -12.890625 2.863281 -13.378906 2.84375 -13.765625 C 2.820312 -14.148438 2.785156 -14.378906 2.734375 -14.453125 L 1 -14.8125 L 1.078125 -16.1875 L 8.078125 -16.1875 C 10.335938 -16.1875 12.023438 -15.773438 13.140625 -14.953125 C 14.253906 -14.140625 14.8125 -12.96875 14.8125 -11.4375 C 14.8125 -10.425781 14.539062 -9.515625 14 -8.703125 C 13.46875 -7.898438 12.703125 -7.265625 11.703125 -6.796875 C 10.703125 -6.328125 9.492188 -6.09375 8.078125 -6.09375 C 7.765625 -6.09375 7.453125 -6.109375 7.140625 -6.140625 C 6.828125 -6.179688 6.535156 -6.226562 6.265625 -6.28125 L 6.265625 -8.1875 C 6.460938 -8.09375 6.71875 -8.015625 7.03125 -7.953125 C 7.34375 -7.890625 7.691406 -7.859375 8.078125 -7.859375 C 8.960938 -7.859375 9.644531 -8.132812 10.125 -8.6875 C 10.601562 -9.238281 10.84375 -10.035156 10.84375 -11.078125 C 10.84375 -12.316406 10.535156 -13.21875 9.921875 -13.78125 C 9.316406 -14.351562 8.488281 -14.640625 7.4375 -14.640625 L 6.671875 -14.640625 C 6.671875 -14.492188 6.664062 -14.242188 6.65625 -13.890625 C 6.644531 -13.546875 6.632812 -13.082031 6.625 -12.5 C 6.625 -11.925781 6.625 -11.21875 6.625 -10.375 L 6.640625 -5.921875 C 6.640625 -5.191406 6.65625 -4.523438 6.6875 -3.921875 C 6.71875 -3.328125 6.742188 -2.847656 6.765625 -2.484375 C 6.796875 -2.128906 6.820312 -1.914062 6.84375 -1.84375 L 9.078125 -1.4375 L 8.984375 0 Z M 1.15625 0 "/></g></g></g><g fill="#00c2cb" fill-opacity="1"><g transform="translate(112.366357, 306.149201)"><g><path d="M 0.53125 0 L 0.4375 -1.265625 L 2.15625 -1.734375 C 2.164062 -1.941406 2.1875 -2.296875 2.21875 -2.796875 C 2.25 -3.304688 2.269531 -3.890625 2.28125 -4.546875 C 2.300781 -5.210938 2.3125 -5.859375 2.3125 -6.484375 L 2.3125 -9.953125 C 2.3125 -10.578125 2.304688 -11.207031 2.296875 -11.84375 C 2.285156 -12.476562 2.273438 -13.082031 2.265625 -13.65625 C 2.265625 -14.238281 2.253906 -14.769531 2.234375 -15.25 C 2.210938 -15.726562 2.1875 -16.113281 2.15625 -16.40625 L 0.109375 -16.6875 L 0.0625 -17.859375 L 5.265625 -19.21875 L 6.03125 -18.75 C 6.019531 -18.175781 5.992188 -17.625 5.953125 -17.09375 C 5.921875 -16.5625 5.898438 -15.976562 5.890625 -15.34375 C 5.878906 -14.707031 5.863281 -13.976562 5.84375 -13.15625 C 5.820312 -12.34375 5.804688 -11.359375 5.796875 -10.203125 L 5.875 -10.171875 C 6.445312 -10.890625 7.070312 -11.425781 7.75 -11.78125 C 8.425781 -12.144531 9.144531 -12.328125 9.90625 -12.328125 C 10.6875 -12.328125 11.390625 -12.132812 12.015625 -11.75 C 12.640625 -11.363281 13.128906 -10.796875 13.484375 -10.046875 C 13.847656 -9.304688 14.03125 -8.410156 14.03125 -7.359375 L 14.03125 -4.515625 C 14.03125 -3.890625 14.046875 -3.304688 14.078125 -2.765625 C 14.109375 -2.222656 14.140625 -1.878906 14.171875 -1.734375 L 15.875 -1.265625 L 15.796875 0 L 8.90625 0 L 8.828125 -1.265625 L 10.375 -1.734375 C 10.40625 -1.921875 10.429688 -2.160156 10.453125 -2.453125 C 10.472656 -2.742188 10.484375 -3.070312 10.484375 -3.4375 C 10.492188 -3.8125 10.5 -4.164062 10.5 -4.5 L 10.5 -6.8125 C 10.5 -7.507812 10.394531 -8.070312 10.1875 -8.5 C 9.976562 -8.9375 9.703125 -9.253906 9.359375 -9.453125 C 9.015625 -9.660156 8.632812 -9.765625 8.21875 -9.765625 C 7.757812 -9.765625 7.328125 -9.660156 6.921875 -9.453125 C 6.515625 -9.253906 6.15625 -8.960938 5.84375 -8.578125 L 5.84375 -4.515625 C 5.84375 -3.835938 5.851562 -3.238281 5.875 -2.71875 C 5.90625 -2.207031 5.953125 -1.878906 6.015625 -1.734375 L 7.671875 -1.265625 L 7.578125 0 Z M 0.53125 0 "/></g></g></g><g fill="#00c2cb" fill-opacity="1"><g transform="translate(128.577571, 306.149201)"><g><path d="M 6.171875 0.109375 L 1.125 -10.390625 L -0.171875 -10.84375 L -0.078125 -12.109375 L 6.953125 -12.109375 L 7.03125 -10.84375 L 5.328125 -10.390625 L 8.40625 -3.671875 Z M 13.890625 -12.109375 L 13.984375 -10.84375 L 12.6875 -10.390625 L 7.859375 -0.875 L 5.6875 3.6875 C 5.207031 4.707031 4.707031 5.394531 4.1875 5.75 C 3.675781 6.101562 3.125 6.28125 2.53125 6.28125 C 1.90625 6.28125 1.414062 6.128906 1.0625 5.828125 C 0.707031 5.523438 0.53125 5.15625 0.53125 4.71875 C 0.53125 4.3125 0.6875 3.9375 1 3.59375 C 1.320312 3.257812 1.816406 3 2.484375 2.8125 L 5.734375 1.9375 L 3.890625 3.203125 L 7.21875 -3 L 7.578125 -3.671875 L 10.53125 -10.390625 L 8.828125 -10.84375 L 8.90625 -12.109375 Z M 13.890625 -12.109375 "/></g></g></g><g fill="#00c2cb" fill-opacity="1"><g transform="translate(142.307477, 306.149201)"><g><path d="M 5.375 0.21875 C 4.601562 0.21875 3.835938 0.132812 3.078125 -0.03125 C 2.328125 -0.207031 1.6875 -0.4375 1.15625 -0.71875 L 1.015625 -3.96875 L 2.8125 -3.96875 L 3.390625 -1.984375 C 4.085938 -1.554688 4.8125 -1.34375 5.5625 -1.34375 C 6.132812 -1.34375 6.566406 -1.457031 6.859375 -1.6875 C 7.160156 -1.925781 7.3125 -2.238281 7.3125 -2.625 C 7.3125 -3.019531 7.148438 -3.359375 6.828125 -3.640625 C 6.503906 -3.929688 5.847656 -4.269531 4.859375 -4.65625 C 3.492188 -5.15625 2.546875 -5.695312 2.015625 -6.28125 C 1.484375 -6.875 1.21875 -7.613281 1.21875 -8.5 C 1.21875 -9.25 1.445312 -9.910156 1.90625 -10.484375 C 2.363281 -11.066406 3.003906 -11.519531 3.828125 -11.84375 C 4.660156 -12.164062 5.617188 -12.328125 6.703125 -12.328125 C 7.285156 -12.328125 7.878906 -12.269531 8.484375 -12.15625 C 9.097656 -12.050781 9.609375 -11.90625 10.015625 -11.71875 L 10.3125 -8.515625 L 8.546875 -8.515625 L 7.9375 -10.484375 C 7.757812 -10.585938 7.535156 -10.671875 7.265625 -10.734375 C 6.992188 -10.804688 6.738281 -10.84375 6.5 -10.84375 C 5.957031 -10.84375 5.519531 -10.722656 5.1875 -10.484375 C 4.851562 -10.242188 4.6875 -9.921875 4.6875 -9.515625 C 4.6875 -9.085938 4.890625 -8.722656 5.296875 -8.421875 C 5.703125 -8.117188 6.4375 -7.75 7.5 -7.3125 C 8.707031 -6.8125 9.566406 -6.28125 10.078125 -5.71875 C 10.597656 -5.15625 10.859375 -4.460938 10.859375 -3.640625 C 10.859375 -2.484375 10.347656 -1.550781 9.328125 -0.84375 C 8.304688 -0.132812 6.988281 0.21875 5.375 0.21875 Z M 5.375 0.21875 "/></g></g></g><g fill="#00c2cb" fill-opacity="1"><g transform="translate(153.831775, 306.149201)"><g><path d="M 0.40625 0 L 0.328125 -1.296875 L 2.171875 -1.734375 C 2.191406 -1.804688 2.210938 -1.972656 2.234375 -2.234375 C 2.253906 -2.503906 2.269531 -2.835938 2.28125 -3.234375 C 2.300781 -3.628906 2.3125 -4.050781 2.3125 -4.5 L 2.34375 -6.5625 C 2.34375 -7.113281 2.320312 -7.601562 2.28125 -8.03125 C 2.25 -8.46875 2.1875 -8.925781 2.09375 -9.40625 L 0.25 -9.78125 L 0.25 -11.03125 L 5.328125 -12.265625 L 6.0625 -11.796875 C 6.007812 -11.210938 5.96875 -10.617188 5.9375 -10.015625 C 5.914062 -9.421875 5.90625 -8.75 5.90625 -8 L 5.90625 -4.515625 C 5.90625 -3.910156 5.914062 -3.332031 5.9375 -2.78125 C 5.96875 -2.226562 6.007812 -1.878906 6.0625 -1.734375 L 7.890625 -1.296875 L 7.796875 0 Z M 4.15625 -14.53125 C 3.40625 -14.53125 2.820312 -14.753906 2.40625 -15.203125 C 1.988281 -15.648438 1.78125 -16.171875 1.78125 -16.765625 C 1.78125 -17.347656 1.988281 -17.863281 2.40625 -18.3125 C 2.820312 -18.769531 3.40625 -19 4.15625 -19 C 4.914062 -19 5.488281 -18.769531 5.875 -18.3125 C 6.269531 -17.863281 6.46875 -17.347656 6.46875 -16.765625 C 6.46875 -16.171875 6.269531 -15.648438 5.875 -15.203125 C 5.488281 -14.753906 4.914062 -14.53125 4.15625 -14.53125 Z M 4.15625 -14.53125 "/></g></g></g><g fill="#00c2cb" fill-opacity="1"><g transform="translate(162.047662, 306.149201)"><g><path d="M 7.4375 0.21875 C 6.15625 0.21875 5.023438 -0.0390625 4.046875 -0.5625 C 3.078125 -1.082031 2.316406 -1.804688 1.765625 -2.734375 C 1.210938 -3.671875 0.9375 -4.734375 0.9375 -5.921875 C 0.9375 -7.285156 1.25 -8.445312 1.875 -9.40625 C 2.5 -10.363281 3.316406 -11.085938 4.328125 -11.578125 C 5.335938 -12.078125 6.414062 -12.328125 7.5625 -12.328125 C 8.789062 -12.328125 9.867188 -12.066406 10.796875 -11.546875 C 11.722656 -11.035156 12.445312 -10.316406 12.96875 -9.390625 C 13.5 -8.460938 13.765625 -7.398438 13.765625 -6.203125 C 13.765625 -4.992188 13.476562 -3.90625 12.90625 -2.9375 C 12.332031 -1.96875 11.570312 -1.195312 10.625 -0.625 C 9.675781 -0.0625 8.613281 0.21875 7.4375 0.21875 Z M 7.71875 -1.546875 C 8.175781 -1.546875 8.566406 -1.691406 8.890625 -1.984375 C 9.210938 -2.273438 9.460938 -2.707031 9.640625 -3.28125 C 9.816406 -3.851562 9.90625 -4.535156 9.90625 -5.328125 C 9.90625 -6.898438 9.648438 -8.179688 9.140625 -9.171875 C 8.628906 -10.171875 7.953125 -10.671875 7.109375 -10.671875 C 6.429688 -10.671875 5.882812 -10.316406 5.46875 -9.609375 C 5.0625 -8.898438 4.859375 -7.941406 4.859375 -6.734375 C 4.859375 -5.753906 4.976562 -4.867188 5.21875 -4.078125 C 5.46875 -3.285156 5.804688 -2.664062 6.234375 -2.21875 C 6.671875 -1.769531 7.164062 -1.546875 7.71875 -1.546875 Z M 7.71875 -1.546875 "/></g></g></g><g fill="#00c2cb" fill-opacity="1"><g transform="translate(176.742521, 306.149201)"><g><path d="M 10.28125 -2.3125 C 10.007812 -1.519531 9.507812 -0.890625 8.78125 -0.421875 C 8.050781 0.046875 7.238281 0.28125 6.34375 0.28125 C 5.070312 0.28125 4.023438 -0.0859375 3.203125 -0.828125 C 2.390625 -1.578125 1.984375 -2.695312 1.984375 -4.1875 L 2.0625 -10.34375 L 0.140625 -10.34375 L 0.140625 -11.1875 L 4.859375 -14.9375 L 5.703125 -14.9375 L 5.65625 -11.0625 L 5.59375 -4.515625 C 5.59375 -3.742188 5.78125 -3.191406 6.15625 -2.859375 C 6.539062 -2.535156 7.0625 -2.375 7.71875 -2.375 C 8.050781 -2.375 8.378906 -2.4375 8.703125 -2.5625 C 9.035156 -2.6875 9.332031 -2.867188 9.59375 -3.109375 Z M 4.28125 -10.34375 L 4.28125 -12.078125 L 9.546875 -12.078125 L 9.546875 -10.34375 Z M 4.28125 -10.34375 "/></g></g></g><g fill="#00c2cb" fill-opacity="1"><g transform="translate(186.915885, 306.149201)"><g><path d="M 0.53125 0 L 0.4375 -1.265625 L 2.15625 -1.734375 C 2.164062 -1.941406 2.1875 -2.296875 2.21875 -2.796875 C 2.25 -3.304688 2.269531 -3.890625 2.28125 -4.546875 C 2.300781 -5.210938 2.3125 -5.859375 2.3125 -6.484375 L 2.3125 -9.953125 C 2.3125 -10.578125 2.304688 -11.207031 2.296875 -11.84375 C 2.285156 -12.476562 2.273438 -13.082031 2.265625 -13.65625 C 2.265625 -14.238281 2.253906 -14.769531 2.234375 -15.25 C 2.210938 -15.726562 2.1875 -16.113281 2.15625 -16.40625 L 0.109375 -16.6875 L 0.0625 -17.859375 L 5.265625 -19.21875 L 6.03125 -18.75 C 6.019531 -18.175781 5.992188 -17.625 5.953125 -17.09375 C 5.921875 -16.5625 5.898438 -15.976562 5.890625 -15.34375 C 5.878906 -14.707031 5.863281 -13.976562 5.84375 -13.15625 C 5.820312 -12.34375 5.804688 -11.359375 5.796875 -10.203125 L 5.875 -10.171875 C 6.445312 -10.890625 7.070312 -11.425781 7.75 -11.78125 C 8.425781 -12.144531 9.144531 -12.328125 9.90625 -12.328125 C 10.6875 -12.328125 11.390625 -12.132812 12.015625 -11.75 C 12.640625 -11.363281 13.128906 -10.796875 13.484375 -10.046875 C 13.847656 -9.304688 14.03125 -8.410156 14.03125 -7.359375 L 14.03125 -4.515625 C 14.03125 -3.890625 14.046875 -3.304688 14.078125 -2.765625 C 14.109375 -2.222656 14.140625 -1.878906 14.171875 -1.734375 L 15.875 -1.265625 L 15.796875 0 L 8.90625 0 L 8.828125 -1.265625 L 10.375 -1.734375 C 10.40625 -1.921875 10.429688 -2.160156 10.453125 -2.453125 C 10.472656 -2.742188 10.484375 -3.070312 10.484375 -3.4375 C 10.492188 -3.8125 10.5 -4.164062 10.5 -4.5 L 10.5 -6.8125 C 10.5 -7.507812 10.394531 -8.070312 10.1875 -8.5 C 9.976562 -8.9375 9.703125 -9.253906 9.359375 -9.453125 C 9.015625 -9.660156 8.632812 -9.765625 8.21875 -9.765625 C 7.757812 -9.765625 7.328125 -9.660156 6.921875 -9.453125 C 6.515625 -9.253906 6.15625 -8.960938 5.84375 -8.578125 L 5.84375 -4.515625 C 5.84375 -3.835938 5.851562 -3.238281 5.875 -2.71875 C 5.90625 -2.207031 5.953125 -1.878906 6.015625 -1.734375 L 7.671875 -1.265625 L 7.578125 0 Z M 0.53125 0 "/></g></g></g><g fill="#00c2cb" fill-opacity="1"><g transform="translate(203.127099, 306.149201)"><g><path d="M 7.109375 0.21875 C 5.921875 0.21875 4.859375 -0.046875 3.921875 -0.578125 C 2.992188 -1.109375 2.269531 -1.832031 1.75 -2.75 C 1.226562 -3.675781 0.96875 -4.71875 0.96875 -5.875 C 0.96875 -7.15625 1.257812 -8.28125 1.84375 -9.25 C 2.4375 -10.21875 3.203125 -10.976562 4.140625 -11.53125 C 5.085938 -12.082031 6.109375 -12.347656 7.203125 -12.328125 C 8.835938 -12.328125 10.09375 -11.820312 10.96875 -10.8125 C 11.851562 -9.8125 12.296875 -8.515625 12.296875 -6.921875 L 12.296875 -6.265625 L 4.1875 -6.265625 L 4.1875 -7.6875 L 9.5625 -7.6875 L 9.15625 -7.03125 L 9.15625 -8 C 9.15625 -8.84375 8.960938 -9.519531 8.578125 -10.03125 C 8.191406 -10.550781 7.65625 -10.8125 6.96875 -10.8125 C 6.53125 -10.8125 6.125 -10.679688 5.75 -10.421875 C 5.375 -10.160156 5.078125 -9.769531 4.859375 -9.25 C 4.648438 -8.726562 4.546875 -8.070312 4.546875 -7.28125 L 4.546875 -6.703125 C 4.546875 -5.429688 4.894531 -4.398438 5.59375 -3.609375 C 6.289062 -2.816406 7.21875 -2.421875 8.375 -2.421875 C 9 -2.421875 9.566406 -2.535156 10.078125 -2.765625 C 10.597656 -2.992188 11.097656 -3.382812 11.578125 -3.9375 L 12.4375 -3.140625 C 11.914062 -2.035156 11.1875 -1.195312 10.25 -0.625 C 9.3125 -0.0625 8.265625 0.21875 7.109375 0.21875 Z M 7.109375 0.21875 "/></g></g></g><g fill="#00c2cb" fill-opacity="1"><g transform="translate(216.278033, 306.149201)"><g><path d="M 0.546875 0 L 0.46875 -1.265625 L 2.171875 -1.734375 C 2.191406 -1.804688 2.210938 -1.972656 2.234375 -2.234375 C 2.253906 -2.503906 2.269531 -2.835938 2.28125 -3.234375 C 2.300781 -3.628906 2.3125 -4.050781 2.3125 -4.5 L 2.34375 -6.5625 C 2.34375 -7.113281 2.320312 -7.601562 2.28125 -8.03125 C 2.25 -8.46875 2.1875 -8.925781 2.09375 -9.40625 L 0.328125 -9.78125 L 0.328125 -11.03125 L 5.09375 -12.265625 L 5.84375 -11.796875 L 5.734375 -9.625 L 5.8125 -9.59375 C 6.332031 -10.625 6.863281 -11.320312 7.40625 -11.6875 C 7.945312 -12.0625 8.507812 -12.25 9.09375 -12.25 C 9.59375 -12.25 10.023438 -12.109375 10.390625 -11.828125 C 10.765625 -11.554688 10.953125 -11.125 10.953125 -10.53125 C 10.953125 -9.945312 10.753906 -9.488281 10.359375 -9.15625 C 9.960938 -8.820312 9.488281 -8.65625 8.9375 -8.65625 C 8.488281 -8.65625 8.085938 -8.726562 7.734375 -8.875 C 7.390625 -9.019531 7.019531 -9.296875 6.625 -9.703125 L 7.390625 -9.65625 C 7.097656 -9.445312 6.828125 -9.1875 6.578125 -8.875 C 6.328125 -8.5625 6.101562 -8.203125 5.90625 -7.796875 L 5.921875 -5.625 C 5.941406 -4.945312 5.960938 -4.335938 5.984375 -3.796875 C 6.003906 -3.253906 6.019531 -2.800781 6.03125 -2.4375 C 6.050781 -2.082031 6.0625 -1.847656 6.0625 -1.734375 L 8.46875 -1.328125 L 8.375 0 Z M 0.546875 0 "/></g></g></g><g fill="#00c2cb" fill-opacity="1"><g transform="translate(227.609341, 306.149201)"><g><path d="M 5.1875 0.21875 C 4.34375 0.21875 3.609375 0.0351562 2.984375 -0.328125 C 2.367188 -0.691406 1.898438 -1.128906 1.578125 -1.640625 C 1.265625 -2.160156 1.109375 -2.648438 1.109375 -3.109375 C 1.109375 -3.796875 1.3125 -4.359375 1.71875 -4.796875 C 2.132812 -5.234375 2.773438 -5.582031 3.640625 -5.84375 L 7.96875 -7.109375 L 7.96875 -8.109375 C 7.96875 -8.492188 7.84375 -8.851562 7.59375 -9.1875 C 7.34375 -9.53125 7.015625 -9.8125 6.609375 -10.03125 C 6.210938 -10.257812 5.785156 -10.375 5.328125 -10.375 C 5.023438 -10.375 4.8125 -10.300781 4.6875 -10.15625 C 4.570312 -10.019531 4.5 -9.75 4.46875 -9.34375 L 4.328125 -7.671875 C 3.410156 -7.484375 2.660156 -7.515625 2.078125 -7.765625 C 1.503906 -8.015625 1.21875 -8.421875 1.21875 -8.984375 C 1.21875 -9.335938 1.398438 -9.695312 1.765625 -10.0625 C 2.128906 -10.425781 2.582031 -10.769531 3.125 -11.09375 C 3.664062 -11.414062 4.222656 -11.691406 4.796875 -11.921875 C 5.367188 -12.148438 5.875 -12.285156 6.3125 -12.328125 C 7.925781 -12.328125 9.21875 -11.953125 10.1875 -11.203125 C 11.15625 -10.460938 11.640625 -9.46875 11.640625 -8.21875 L 11.546875 -4.390625 C 11.546875 -3.867188 11.5625 -3.460938 11.59375 -3.171875 C 11.625 -2.890625 11.6875 -2.660156 11.78125 -2.484375 L 13.5625 -2.15625 L 13.5625 -1 L 11.78125 -0.1875 C 11.46875 -0.0625 11.164062 0.0351562 10.875 0.109375 C 10.59375 0.179688 10.320312 0.21875 10.0625 0.21875 C 9.34375 0.21875 8.835938 -0.144531 8.546875 -0.875 L 8.078125 -2.15625 L 8.65625 -2.015625 C 8.082031 -1.316406 7.5 -0.769531 6.90625 -0.375 C 6.3125 0.0195312 5.738281 0.21875 5.1875 0.21875 Z M 6.59375 -2.265625 C 6.84375 -2.265625 7.085938 -2.3125 7.328125 -2.40625 C 7.566406 -2.507812 7.789062 -2.664062 8 -2.875 L 8 -5.5625 L 6.125 -5.234375 C 5.675781 -5.160156 5.351562 -5.015625 5.15625 -4.796875 C 4.957031 -4.578125 4.859375 -4.289062 4.859375 -3.9375 C 4.859375 -3.5 5.023438 -3.109375 5.359375 -2.765625 C 5.703125 -2.429688 6.113281 -2.265625 6.59375 -2.265625 Z M 6.59375 -2.265625 "/></g></g></g><g fill="#00c2cb" fill-opacity="1"><g transform="translate(241.394387, 306.149201)"><g><path d="M 0.4375 6.0625 L 0.359375 4.796875 L 2.0625 4.328125 C 2.0625 4.210938 2.070312 3.976562 2.09375 3.625 C 2.113281 3.28125 2.128906 2.859375 2.140625 2.359375 C 2.160156 1.867188 2.179688 1.320312 2.203125 0.71875 C 2.222656 0.113281 2.234375 -0.492188 2.234375 -1.109375 L 2.28125 -6.59375 C 2.28125 -7.125 2.257812 -7.601562 2.21875 -8.03125 C 2.1875 -8.46875 2.128906 -8.925781 2.046875 -9.40625 L 0.28125 -9.78125 L 0.28125 -11.03125 L 5.125 -12.265625 L 5.90625 -11.796875 L 5.6875 -10.125 L 5.765625 -10.09375 C 6.203125 -10.769531 6.75 -11.3125 7.40625 -11.71875 C 8.070312 -12.125 8.773438 -12.328125 9.515625 -12.328125 C 10.398438 -12.328125 11.222656 -12.097656 11.984375 -11.640625 C 12.742188 -11.191406 13.363281 -10.539062 13.84375 -9.6875 C 14.320312 -8.832031 14.5625 -7.789062 14.5625 -6.5625 C 14.5625 -5.363281 14.285156 -4.25 13.734375 -3.21875 C 13.179688 -2.195312 12.394531 -1.375 11.375 -0.75 C 10.351562 -0.125 9.15625 0.1875 7.78125 0.1875 C 7.46875 0.1875 7.140625 0.160156 6.796875 0.109375 C 6.453125 0.0546875 6.125 -0.0234375 5.8125 -0.140625 L 5.8125 1.59375 C 5.8125 2.207031 5.828125 2.78125 5.859375 3.3125 C 5.890625 3.84375 5.910156 4.179688 5.921875 4.328125 L 8.1875 4.765625 L 8.109375 6.0625 Z M 7.796875 -1.765625 C 8.367188 -1.765625 8.867188 -1.894531 9.296875 -2.15625 C 9.734375 -2.425781 10.078125 -2.851562 10.328125 -3.4375 C 10.585938 -4.03125 10.710938 -4.785156 10.703125 -5.703125 C 10.710938 -6.660156 10.582031 -7.425781 10.3125 -8 C 10.039062 -8.582031 9.691406 -9.007812 9.265625 -9.28125 C 8.835938 -9.5625 8.378906 -9.703125 7.890625 -9.703125 C 7.503906 -9.703125 7.128906 -9.601562 6.765625 -9.40625 C 6.410156 -9.21875 6.09375 -8.957031 5.8125 -8.625 L 5.8125 -2.34375 C 6.09375 -2.175781 6.40625 -2.035156 6.75 -1.921875 C 7.101562 -1.816406 7.453125 -1.765625 7.796875 -1.765625 Z M 7.796875 -1.765625 "/></g></g></g><g fill="#00c2cb" fill-opacity="1"><g transform="translate(256.943919, 306.149201)"><g><path d="M 0.40625 0 L 0.328125 -1.296875 L 2.171875 -1.734375 C 2.191406 -1.804688 2.210938 -1.972656 2.234375 -2.234375 C 2.253906 -2.503906 2.269531 -2.835938 2.28125 -3.234375 C 2.300781 -3.628906 2.3125 -4.050781 2.3125 -4.5 L 2.34375 -6.5625 C 2.34375 -7.113281 2.320312 -7.601562 2.28125 -8.03125 C 2.25 -8.46875 2.1875 -8.925781 2.09375 -9.40625 L 0.25 -9.78125 L 0.25 -11.03125 L 5.328125 -12.265625 L 6.0625 -11.796875 C 6.007812 -11.210938 5.96875 -10.617188 5.9375 -10.015625 C 5.914062 -9.421875 5.90625 -8.75 5.90625 -8 L 5.90625 -4.515625 C 5.90625 -3.910156 5.914062 -3.332031 5.9375 -2.78125 C 5.96875 -2.226562 6.007812 -1.878906 6.0625 -1.734375 L 7.890625 -1.296875 L 7.796875 0 Z M 4.15625 -14.53125 C 3.40625 -14.53125 2.820312 -14.753906 2.40625 -15.203125 C 1.988281 -15.648438 1.78125 -16.171875 1.78125 -16.765625 C 1.78125 -17.347656 1.988281 -17.863281 2.40625 -18.3125 C 2.820312 -18.769531 3.40625 -19 4.15625 -19 C 4.914062 -19 5.488281 -18.769531 5.875 -18.3125 C 6.269531 -17.863281 6.46875 -17.347656 6.46875 -16.765625 C 6.46875 -16.171875 6.269531 -15.648438 5.875 -15.203125 C 5.488281 -14.753906 4.914062 -14.53125 4.15625 -14.53125 Z M 4.15625 -14.53125 "/></g></g></g><g fill="#00c2cb" fill-opacity="1"><g transform="translate(265.159806, 306.149201)"><g><path d="M 7.109375 0.21875 C 5.921875 0.21875 4.859375 -0.046875 3.921875 -0.578125 C 2.992188 -1.109375 2.269531 -1.832031 1.75 -2.75 C 1.226562 -3.675781 0.96875 -4.71875 0.96875 -5.875 C 0.96875 -7.15625 1.257812 -8.28125 1.84375 -9.25 C 2.4375 -10.21875 3.203125 -10.976562 4.140625 -11.53125 C 5.085938 -12.082031 6.109375 -12.347656 7.203125 -12.328125 C 8.835938 -12.328125 10.09375 -11.820312 10.96875 -10.8125 C 11.851562 -9.8125 12.296875 -8.515625 12.296875 -6.921875 L 12.296875 -6.265625 L 4.1875 -6.265625 L 4.1875 -7.6875 L 9.5625 -7.6875 L 9.15625 -7.03125 L 9.15625 -8 C 9.15625 -8.84375 8.960938 -9.519531 8.578125 -10.03125 C 8.191406 -10.550781 7.65625 -10.8125 6.96875 -10.8125 C 6.53125 -10.8125 6.125 -10.679688 5.75 -10.421875 C 5.375 -10.160156 5.078125 -9.769531 4.859375 -9.25 C 4.648438 -8.726562 4.546875 -8.070312 4.546875 -7.28125 L 4.546875 -6.703125 C 4.546875 -5.429688 4.894531 -4.398438 5.59375 -3.609375 C 6.289062 -2.816406 7.21875 -2.421875 8.375 -2.421875 C 9 -2.421875 9.566406 -2.535156 10.078125 -2.765625 C 10.597656 -2.992188 11.097656 -3.382812 11.578125 -3.9375 L 12.4375 -3.140625 C 11.914062 -2.035156 11.1875 -1.195312 10.25 -0.625 C 9.3125 -0.0625 8.265625 0.21875 7.109375 0.21875 Z M 7.109375 0.21875 "/></g></g></g><g clip-path="url(#2df160052b)"><g clip-path="url(#43bbc481f7)"><path fill="#00c2cb" d="M 169.921875 54.902344 L 227.683594 54.902344 L 227.683594 112.664062 L 169.921875 112.664062 Z M 169.921875 54.902344 " fill-opacity="1" fill-rule="nonzero"/></g></g><g clip-path="url(#f304dc6f64)"><g clip-path="url(#6b1ee3a2c3)"><g clip-path="url(#766866a36d)"><path fill="#00c2cb" d="M 123.109375 28.757812 C 136.03125 46.375 146.621094 65.292969 154.878906 85.519531 C 163.265625 105.75 169.550781 126.617188 173.734375 148.117188 C 175.9375 158.871094 177.109375 169.765625 178.316406 180.613281 C 178.757812 186.09375 178.742188 191.578125 179.007812 196.992188 L 179.441406 204.988281 L 179.015625 213.1875 C 178.703125 218.660156 178.558594 224.113281 178.070312 229.515625 L 175.460938 245.917969 C 174.96875 248.644531 174.597656 251.316406 174.058594 254.003906 L 172.007812 261.859375 C 170.730469 267.296875 169.089844 272.433594 167.53125 277.5625 C 167.890625 272.132812 168.253906 266.78125 168.742188 261.378906 L 169.484375 253.4375 C 169.644531 250.746094 169.59375 248.03125 169.632812 245.390625 L 170.148438 229.394531 L 169.511719 213.597656 C 168.71875 192.375 166.230469 171.355469 162.039062 150.535156 C 158.011719 129.664062 152.707031 109.121094 146.121094 88.910156 C 139.484375 68.464844 131.8125 48.414062 123.109375 28.757812 Z M 123.109375 28.757812 " fill-opacity="1" fill-rule="nonzero"/></g></g></g><g clip-path="url(#526a92e973)"><g clip-path="url(#03889d9182)"><g clip-path="url(#32bb674f95)"><path fill="#00c2cb" d="M 204.429688 279.796875 C 201.445312 258.152344 201.136719 236.476562 203.496094 214.757812 C 205.746094 192.96875 210.148438 171.625 216.699219 150.726562 C 219.878906 140.21875 224.03125 130.082031 228.132812 119.964844 C 230.351562 114.933594 232.976562 110.117188 235.316406 105.226562 L 238.738281 97.992188 L 243.015625 90.980469 C 245.894531 86.320312 248.617188 81.589844 251.617188 77.070312 L 261.71875 63.882812 C 263.449219 61.722656 265.046875 59.546875 266.796875 57.441406 L 272.339844 51.507812 C 276.050781 47.332031 279.9375 43.59375 283.75 39.824219 C 280.851562 44.433594 277.984375 48.964844 274.984375 53.484375 L 270.550781 60.113281 C 269.128906 62.40625 267.882812 64.820312 266.589844 67.121094 L 258.527344 80.945312 L 251.570312 95.144531 C 242.167969 114.1875 234.355469 133.859375 228.136719 154.164062 C 221.746094 174.4375 216.640625 195.03125 212.8125 215.941406 C 208.921875 237.082031 206.128906 258.367188 204.429688 279.796875 Z M 204.429688 279.796875 " fill-opacity="1" fill-rule="nonzero"/></g></g></g></svg>