<svg xmlns="http://www.w3.org/2000/svg" xmlns:xlink="http://www.w3.org/1999/xlink" width="500" zoomAndPan="magnify" viewBox="0 0 375 374.999991" height="500" preserveAspectRatio="xMidYMid meet" version="1.0"><defs><clipPath id="f9b97caad6"><path d="M 161.96875 43.121094 L 245.871094 43.121094 L 245.871094 127.019531 L 161.96875 127.019531 Z M 161.96875 43.121094 " clip-rule="nonzero"/></clipPath><clipPath id="b7180f4eaf"><path d="M 203.917969 43.121094 C 180.75 43.121094 161.96875 61.902344 161.96875 85.070312 C 161.96875 108.238281 180.75 127.019531 203.917969 127.019531 C 227.085938 127.019531 245.871094 108.238281 245.871094 85.070312 C 245.871094 61.902344 227.085938 43.121094 203.917969 43.121094 " clip-rule="nonzero"/></clipPath><clipPath id="8a36a17f94"><path d="M 93 5 L 176 5 L 176 367 L 93 367 Z M 93 5 " clip-rule="nonzero"/></clipPath><clipPath id="f5ff660c81"><path d="M -57.476562 188.359375 L 93.90625 4.871094 L 310.117188 183.25 L 158.734375 366.738281 Z M -57.476562 188.359375 " clip-rule="nonzero"/></clipPath><clipPath id="5c4cb1cc2b"><path d="M -57.476562 188.359375 L 93.90625 4.871094 L 310.117188 183.25 L 158.734375 366.738281 Z M -57.476562 188.359375 " clip-rule="nonzero"/></clipPath><clipPath id="562acdd5cf"><path d="M 208 21 L 328 21 L 328 370 L 208 370 Z M 208 21 " clip-rule="nonzero"/></clipPath><clipPath id="ebcfe056b8"><path d="M 106.945312 110.425781 L 327.398438 21.074219 L 432.6875 280.847656 L 212.230469 370.199219 Z M 106.945312 110.425781 " clip-rule="nonzero"/></clipPath><clipPath id="c1c64ea834"><path d="M 432.476562 280.703125 L 212.019531 370.054688 L 106.730469 110.28125 L 327.1875 20.929688 Z M 432.476562 280.703125 " clip-rule="nonzero"/></clipPath></defs><rect x="-37.5" width="450" fill="#ffffff" y="-37.499999" height="449.999989" fill-opacity="1"/><rect x="-37.5" width="450" fill="#ffffff" y="-37.499999" height="449.999989" fill-opacity="1"/><rect x="-37.5" width="450" fill="#00c2cb" y="-37.499999" height="449.999989" fill-opacity="1"/><g clip-path="url(#f9b97caad6)"><g clip-path="url(#b7180f4eaf)"><path fill="#f3fdfc" d="M 161.96875 43.121094 L 245.871094 43.121094 L 245.871094 127.019531 L 161.96875 127.019531 Z M 161.96875 43.121094 " fill-opacity="1" fill-rule="nonzero"/></g></g><g clip-path="url(#8a36a17f94)"><g clip-path="url(#f5ff660c81)"><g clip-path="url(#5c4cb1cc2b)"><path fill="#f3fdfc" d="M 93.96875 5.144531 C 112.742188 30.730469 128.121094 58.210938 140.117188 87.589844 C 152.296875 116.976562 161.429688 147.289062 167.503906 178.515625 C 170.703125 194.136719 172.40625 209.960938 174.160156 225.71875 C 174.804688 233.679688 174.777344 241.644531 175.167969 249.507812 L 175.796875 261.121094 L 175.175781 273.035156 C 174.722656 280.980469 174.511719 288.902344 173.804688 296.75 L 170.011719 320.578125 C 169.296875 324.535156 168.757812 328.417969 167.976562 332.320312 L 165 343.730469 C 163.144531 351.628906 160.757812 359.089844 158.496094 366.539062 C 159.015625 358.648438 159.546875 350.878906 160.253906 343.03125 L 161.332031 331.5 C 161.566406 327.585938 161.492188 323.640625 161.550781 319.808594 L 162.296875 296.574219 L 161.371094 273.625 C 160.222656 242.800781 156.605469 212.269531 150.515625 182.027344 C 144.667969 151.710938 136.960938 121.875 127.398438 92.515625 C 117.757812 62.816406 106.613281 33.695312 93.96875 5.144531 Z M 93.96875 5.144531 " fill-opacity="1" fill-rule="nonzero"/></g></g></g><g clip-path="url(#562acdd5cf)"><g clip-path="url(#ebcfe056b8)"><g clip-path="url(#c1c64ea834)"><path fill="#f3fdfc" d="M 212.09375 369.78125 C 207.757812 338.347656 207.304688 306.859375 210.734375 275.3125 C 214.003906 243.664062 220.398438 212.664062 229.914062 182.308594 C 234.53125 167.046875 240.5625 152.320312 246.519531 137.625 C 249.742188 130.316406 253.554688 123.320312 256.953125 116.21875 L 261.925781 105.707031 L 268.140625 95.523438 C 272.320312 88.753906 276.277344 81.886719 280.632812 75.316406 L 295.304688 56.164062 C 297.816406 53.023438 300.136719 49.867188 302.683594 46.804688 L 310.730469 38.1875 C 316.121094 32.125 321.769531 26.695312 327.304688 21.21875 C 323.09375 27.914062 318.929688 34.496094 314.574219 41.0625 L 308.136719 50.6875 C 306.070312 54.019531 304.257812 57.523438 302.382812 60.871094 L 290.667969 80.945312 L 280.5625 101.570312 C 266.90625 129.230469 255.5625 157.808594 246.527344 187.300781 C 237.246094 216.75 229.824219 246.660156 224.265625 277.03125 C 218.613281 307.738281 214.558594 338.65625 212.09375 369.78125 Z M 212.09375 369.78125 " fill-opacity="1" fill-rule="nonzero"/></g></g></g></svg>